<svg width="112" height="30" viewBox="0 0 112 30" fill="none" xmlns="http://www.w3.org/2000/svg">
<path d="M7.57985 6.25457C7.68848 6.1659 7.79711 6.07943 7.90796 5.99519C7.95008 5.96415 7.98999 5.93312 8.03211 5.90429C8.05649 5.88656 8.07867 5.87104 8.10305 5.85331C8.10749 5.85109 8.11192 5.84665 8.11635 5.84444C8.13852 5.82892 8.16069 5.81118 8.18286 5.79566C8.1873 5.79345 8.19173 5.78901 8.19616 5.7868C8.20947 5.77793 8.22277 5.76906 8.23607 5.76019C8.29149 5.72251 8.3447 5.68482 8.40012 5.64935C8.47993 5.59614 8.56196 5.54293 8.64177 5.49416C8.64177 5.49416 8.64177 5.49416 8.6462 5.49416C8.68833 5.46756 8.73045 5.44095 8.77257 5.41657C8.77257 5.41657 8.77479 5.41657 8.777 5.41435C9.73694 4.83351 10.6126 4.51648 11.2068 4.30366C11.229 4.29701 11.2511 4.28814 11.2711 4.28149C12.7121 3.76715 13.8294 3.66961 14.264 3.64744H23.9498L26.803 0.0182898H15.4035C14.9246 -0.00609662 14.4457 -0.00609662 13.9647 0.0182898H13.958C10.6592 0.180127 7.3515 1.45709 4.65347 3.98885C-1.44979 9.71745 -1.31234 18.8225 3.68023 24.4003V23.9237C3.68023 20.9507 3.66915 17.9756 3.6891 15.0004C3.69353 14.2578 3.71792 13.4996 3.86646 12.7746C4.33423 10.4779 5.27422 8.56464 6.69307 7.07928C6.77288 6.99504 6.85269 6.91522 6.93472 6.83541C6.98792 6.78221 7.04113 6.73343 7.09434 6.68244C7.13868 6.64032 7.18301 6.60042 7.22735 6.56051C7.26504 6.52726 7.30051 6.494 7.3382 6.46075C7.41801 6.39202 7.49782 6.3233 7.57763 6.25679L7.57985 6.25457Z" fill="#0B2B4F"/>
<path d="M14.7051 25.7252V29.4097C18.7599 29.3344 22.1917 27.9 25.0361 25.1377C24.1537 24.2531 23.3024 23.3974 22.4378 22.5283C20.3029 24.5967 17.709 25.6631 14.7051 25.7229V25.7252Z" fill="#0B2B4F"/>
<path d="M18.3462 14.751H11.0258C11.0502 13.8908 11.2697 13.1504 11.7087 12.5474C12.0878 12.0242 12.5223 11.7515 12.7972 11.583C13.0056 11.4544 13.3647 11.2371 13.8924 11.1086C14.1096 11.0553 14.3092 11.0287 14.4887 11.0154H18.1378L21.0132 7.36412H15.8167C15.759 7.35747 15.7036 7.35082 15.646 7.34638C15.3755 7.31978 15.1183 7.31313 14.8767 7.31978C14.8124 7.31978 14.7149 7.32422 14.5951 7.33087C14.5951 7.33087 14.2271 7.3486 13.9367 7.37077C13.6818 7.39072 12.7595 7.55034 11.8173 7.96491C11.2874 8.19769 9.82648 8.84283 8.73131 10.3304C7.87778 11.4899 7.41887 12.9242 7.35236 14.598C7.30137 15.8329 7.3435 17.0699 7.3435 18.3048C7.3435 21.2289 7.3435 24.1531 7.35015 27.0773C7.35015 27.2191 7.38783 27.4342 7.48095 27.4896C8.58277 28.1347 9.75332 28.6136 11.0347 28.9328V18.3735H18.3462V14.751Z" fill="#0B2B4F"/>
<path d="M39.5026 11.4337C37.5093 11.4337 35.8858 13.0573 35.8858 15.0505C35.8858 17.0438 37.5093 18.6674 39.5026 18.6674H45.1288V20.6768H39.5026C36.4002 20.6768 33.8764 18.153 33.8764 15.0505C33.8764 11.9481 36.4002 9.42434 39.5026 9.42434H45.1288V11.4337H39.5026ZM56.5426 18.6674L57.5714 20.6768H55.3209L54.2921 18.6674L51.8327 13.8449L49.3732 18.6674L48.3444 20.6768H46.0939L47.1227 18.6674L51.8327 9.42434L56.5426 18.6674ZM67.785 9.42434L69.7944 9.44041V20.6928L67.785 19.1496L60.5513 13.5717V20.6928H58.5419V9.47256L60.5513 11.0157L67.785 16.5937V9.42434ZM80.1113 9.40826H82.635L78.2788 15.0505L78.0376 15.356V20.6607H76.0283V15.3881L75.755 15.0505L71.3987 9.40826H73.9385L77.0249 13.4109L80.1113 9.40826ZM71.3826 20.7089V20.6768H71.4148L71.3826 20.7089ZM82.635 20.7089L82.619 20.6768H82.635V20.7089ZM87.2936 9.42434H95.524V11.4337H87.3097C86.7471 11.4337 86.2809 11.8999 86.2809 12.4625V13.5074H93.5146V15.5167H86.2648V20.6768H84.2715V12.4625C84.2715 10.7907 85.6218 9.42434 87.2936 9.42434ZM99.1216 20.6768H97.1122V9.42434H99.1216V20.6768ZM100.321 20.725V20.6928H100.353L100.321 20.725ZM111.573 20.6928V20.725L111.557 20.6928H111.573ZM111.573 9.44041H111.606L107.249 15.0827L111.589 20.6928H109.05L105.979 16.7223L102.909 20.6928H100.369L104.693 15.0827L100.337 9.44041H102.877L105.963 13.4431L109.05 9.44041H111.573Z" fill="#0B2B4F"/>
</svg>
