<svg width="540" height="471" viewBox="0 0 540 471" fill="none" xmlns="http://www.w3.org/2000/svg">
<path d="M481.882 5.99968C483.421 3.33301 481.497 0 478.418 0H233.345V0.00393251C209.233 0.189398 185.644 7.07756 165.218 19.9026C144.663 32.8087 128.131 51.2114 117.494 73.0275C106.857 94.8436 102.54 119.202 105.032 143.345C107.27 165.037 114.925 185.777 127.24 203.679C128.862 206.036 132.351 205.821 133.78 203.342L172.651 135.921C173.8 133.929 174.32 131.649 174.345 129.35C174.441 120.485 176.501 111.722 180.411 103.703C185.32 93.6338 192.951 85.1397 202.438 79.1827C211.811 73.2979 222.626 70.1213 233.687 70H410.781C434.783 70 453.163 55.5 465.93 33.6352L481.882 5.99968Z" fill="url(#paint0_linear_2001_15)"/>
<path d="M255.633 203.986C257.064 201.519 259.701 200 262.553 200H375.163C375.224 200 375.284 200 375.345 200C386.445 200.024 397.434 202.222 407.691 206.47C418.004 210.742 427.374 217.003 435.267 224.896C443.16 232.789 449.421 242.159 453.693 252.472C457.964 262.785 460.163 273.838 460.163 285C460.163 296.162 457.964 307.215 453.693 317.528C449.421 327.841 443.16 337.211 435.267 345.104C427.374 352.997 418.004 359.258 407.691 363.53C397.434 367.778 386.445 369.976 375.345 370C375.284 370 375.224 370 375.163 370H167.206C164.142 370 162.215 366.696 163.725 364.029L184.258 327.759C195.275 310.469 214.358 300 234.86 300H375.345V300.001C377.253 299.978 379.14 299.591 380.904 298.86C382.724 298.106 384.378 297.001 385.771 295.608C387.164 294.215 388.269 292.561 389.023 290.741C389.777 288.921 390.165 286.97 390.165 285C390.165 283.03 389.777 281.079 389.023 279.259C388.269 277.439 387.164 275.785 385.771 274.392C384.378 272.999 382.724 271.894 380.904 271.14C379.14 270.409 377.253 270.022 375.345 269.999V270H224.289C221.206 270 219.282 266.66 220.829 263.993L255.633 203.986Z" fill="url(#paint1_linear_2001_15)"/>
<path d="M210.855 104.007L61.1162 364.004C59.5804 366.67 61.5052 370 64.5825 370H133.545C136.402 370 139.043 368.476 140.472 366.001L251.353 173.999C252.782 171.524 255.423 170 258.281 170H353.058C374.475 170 394.267 158.585 404.992 140.048L424.69 106.003C426.232 103.337 424.308 100 421.227 100H217.787C214.926 100 212.283 101.528 210.855 104.007Z" fill="url(#paint2_linear_2001_15)"/>
<path d="M8.64399 423.872H35.06L33.552 430.736H15.352L13.532 439.316H29.444L28.092 445.66H12.232L8.95599 461H0.843994L8.64399 423.872Z" fill="#131313"/>
<path d="M45.1882 429.956H37.7522L39.1042 423.872H46.5402L45.1882 429.956ZM36.9202 434.116H44.3562L38.6362 461H31.2522L36.9202 434.116Z" fill="#131313"/>
<path d="M50.2732 434.116H57.2932L56.2012 438.952L56.3052 439.056C57.1372 437.184 58.3852 435.78 60.0492 434.844C61.7479 433.873 63.5852 433.388 65.5612 433.388C66.3239 433.388 67.0866 433.44 67.8492 433.544L66.3412 440.72C65.8212 440.616 65.3012 440.512 64.7812 440.408C64.2612 440.304 63.7412 440.252 63.2212 440.252C61.7999 440.252 60.5866 440.495 59.5812 440.98C58.6106 441.465 57.7786 442.124 57.0852 442.956C56.4266 443.788 55.8892 444.741 55.4732 445.816C55.0919 446.856 54.7799 447.948 54.5372 449.092L52.0412 461H44.7092L50.2732 434.116Z" fill="#131313"/>
<path d="M85.3261 444.672C85.3261 443.979 85.2568 443.303 85.1181 442.644C85.0141 441.951 84.7888 441.327 84.4421 440.772C84.0955 440.217 83.5928 439.784 82.9341 439.472C82.2755 439.125 81.4088 438.952 80.3341 438.952C79.2941 438.952 78.3755 439.108 77.5781 439.42C76.7808 439.732 76.0875 440.148 75.4981 440.668C74.9088 441.188 74.4061 441.795 73.9901 442.488C73.6088 443.181 73.2795 443.909 73.0021 444.672H85.3261ZM72.2221 449.352C72.1875 449.525 72.1701 449.681 72.1701 449.82C72.1701 449.959 72.1701 450.097 72.1701 450.236V450.912C72.1701 452.472 72.6555 453.737 73.6261 454.708C74.5968 455.679 76.0875 456.164 78.0981 456.164C78.8261 456.164 79.4675 456.06 80.0221 455.852C80.6115 455.609 81.1141 455.315 81.5301 454.968C81.9808 454.621 82.3621 454.223 82.6741 453.772C83.0208 453.321 83.3328 452.888 83.6101 452.472H90.9941C90.4048 453.997 89.7115 455.332 88.9141 456.476C88.1168 457.62 87.1635 458.591 86.0541 459.388C84.9448 460.151 83.6448 460.723 82.1541 461.104C80.6981 461.485 78.9995 461.676 77.0581 461.676C75.2555 461.676 73.6088 461.433 72.1181 460.948C70.6621 460.463 69.4141 459.735 68.3741 458.764C67.3341 457.759 66.5195 456.528 65.9301 455.072C65.3755 453.616 65.0981 451.917 65.0981 449.976C65.0981 447.827 65.4448 445.764 66.1381 443.788C66.8315 441.777 67.8021 440.009 69.0501 438.484C70.3328 436.924 71.8928 435.693 73.7301 434.792C75.5675 433.856 77.6301 433.388 79.9181 433.388C81.7901 433.388 83.4888 433.631 85.0141 434.116C86.5741 434.601 87.8915 435.347 88.9661 436.352C90.0755 437.323 90.9248 438.553 91.5141 440.044C92.1381 441.5 92.4501 443.199 92.4501 445.14C92.4501 446.457 92.3115 447.861 92.0341 449.352H72.2221Z" fill="#131313"/>
<path d="M123.886 432.192C123.886 433.197 124.094 434.116 124.51 434.948C124.926 435.78 125.377 436.595 125.862 437.392C126.382 437.149 126.937 436.855 127.526 436.508C128.15 436.127 128.722 435.711 129.242 435.26C129.797 434.775 130.247 434.255 130.594 433.7C130.975 433.145 131.166 432.556 131.166 431.932C131.166 430.857 130.854 430.008 130.23 429.384C129.606 428.725 128.826 428.396 127.89 428.396C126.85 428.396 125.914 428.708 125.082 429.332C124.285 429.956 123.886 430.909 123.886 432.192ZM131.114 458.088C129.554 459.336 127.994 460.255 126.434 460.844C124.874 461.399 123.106 461.676 121.13 461.676C119.639 461.676 118.201 461.451 116.814 461C115.462 460.549 114.249 459.891 113.174 459.024C112.134 458.157 111.302 457.1 110.678 455.852C110.054 454.569 109.742 453.113 109.742 451.484C109.742 449.924 110.019 448.537 110.574 447.324C111.129 446.076 111.857 444.984 112.758 444.048C113.694 443.077 114.769 442.245 115.982 441.552C117.195 440.824 118.461 440.2 119.778 439.68C119.189 438.675 118.617 437.635 118.062 436.56C117.542 435.451 117.282 434.307 117.282 433.128C117.282 431.603 117.525 430.251 118.01 429.072C118.53 427.859 119.241 426.836 120.142 426.004C121.078 425.172 122.17 424.548 123.418 424.132C124.666 423.681 126.035 423.456 127.526 423.456C128.809 423.456 130.039 423.629 131.218 423.976C132.397 424.323 133.419 424.86 134.286 425.588C135.187 426.281 135.898 427.148 136.418 428.188C136.973 429.228 137.25 430.459 137.25 431.88C137.25 433.163 136.99 434.307 136.47 435.312C135.95 436.317 135.274 437.236 134.442 438.068C133.645 438.865 132.743 439.593 131.738 440.252C130.733 440.876 129.727 441.448 128.722 441.968L132.726 448.416C133.419 447.688 133.974 446.873 134.39 445.972C134.841 445.071 135.187 444.135 135.43 443.164H142.034C141.653 445.175 140.959 447.099 139.954 448.936C138.983 450.739 137.718 452.333 136.158 453.72L140.89 461H132.778L131.114 458.088ZM122.794 444.62C122.066 445.036 121.338 445.452 120.61 445.868C119.917 446.249 119.293 446.7 118.738 447.22C118.183 447.74 117.733 448.347 117.386 449.04C117.039 449.699 116.866 450.513 116.866 451.484C116.866 452.108 117.005 452.68 117.282 453.2C117.559 453.72 117.923 454.171 118.374 454.552C118.859 454.899 119.397 455.176 119.986 455.384C120.575 455.557 121.165 455.644 121.754 455.644C122.898 455.644 123.99 455.367 125.03 454.812C126.07 454.223 127.023 453.581 127.89 452.888L122.794 444.62Z" fill="#131313"/>
<path d="M166.988 448.676C166.919 449.993 167.075 451.103 167.456 452.004C167.838 452.871 168.392 453.564 169.12 454.084C169.848 454.604 170.715 454.985 171.72 455.228C172.726 455.436 173.818 455.54 174.996 455.54C175.828 455.54 176.66 455.436 177.492 455.228C178.324 455.02 179.07 454.708 179.728 454.292C180.422 453.876 180.976 453.339 181.392 452.68C181.843 452.021 182.068 451.224 182.068 450.288C182.068 449.387 181.791 448.659 181.236 448.104C180.682 447.515 179.954 447.012 179.052 446.596C178.186 446.18 177.18 445.816 176.036 445.504C174.927 445.192 173.8 444.863 172.656 444.516C171.478 444.169 170.334 443.753 169.224 443.268C168.115 442.783 167.11 442.159 166.208 441.396C165.342 440.633 164.631 439.697 164.076 438.588C163.556 437.479 163.296 436.127 163.296 434.532C163.296 432.452 163.73 430.684 164.596 429.228C165.463 427.772 166.59 426.593 167.976 425.692C169.363 424.756 170.923 424.08 172.656 423.664C174.424 423.213 176.21 422.988 178.012 422.988C179.919 422.988 181.704 423.213 183.368 423.664C185.067 424.08 186.54 424.773 187.788 425.744C189.071 426.715 190.076 427.963 190.804 429.488C191.567 430.979 191.948 432.799 191.948 434.948H184.2C184.235 433.908 184.079 433.041 183.732 432.348C183.42 431.62 182.952 431.031 182.328 430.58C181.739 430.129 181.028 429.817 180.196 429.644C179.364 429.436 178.48 429.332 177.544 429.332C176.782 429.332 176.002 429.419 175.204 429.592C174.442 429.731 173.748 429.991 173.124 430.372C172.5 430.719 171.998 431.187 171.616 431.776C171.235 432.365 171.044 433.093 171.044 433.96C171.044 434.861 171.374 435.624 172.032 436.248C172.726 436.837 173.54 437.34 174.476 437.756C175.447 438.137 176.435 438.449 177.44 438.692C178.446 438.9 179.26 439.073 179.884 439.212C181.34 439.593 182.675 440.044 183.888 440.564C185.102 441.049 186.142 441.691 187.008 442.488C187.91 443.285 188.603 444.256 189.088 445.4C189.574 446.544 189.816 447.948 189.816 449.612C189.816 451.831 189.348 453.72 188.412 455.28C187.511 456.84 186.332 458.105 184.876 459.076C183.455 460.047 181.843 460.74 180.04 461.156C178.238 461.607 176.452 461.832 174.684 461.832C169.484 461.832 165.602 460.775 163.036 458.66C160.506 456.545 159.24 453.217 159.24 448.676H166.988Z" fill="#131313"/>
<path d="M195.819 442.28C196.062 440.581 196.582 439.177 197.379 438.068C198.177 436.924 199.147 436.005 200.291 435.312C201.435 434.619 202.718 434.133 204.139 433.856C205.561 433.544 207.034 433.388 208.559 433.388C209.773 433.388 211.038 433.475 212.355 433.648C213.673 433.821 214.886 434.168 215.995 434.688C217.105 435.173 218.006 435.884 218.699 436.82C219.427 437.721 219.774 438.935 219.739 440.46C219.739 441.743 219.549 443.251 219.167 444.984L216.775 455.8C216.637 456.285 216.533 456.892 216.463 457.62C216.429 458.313 216.411 458.92 216.411 459.44C216.411 459.891 216.498 460.411 216.671 461H209.287V458.348C208.282 459.492 207.051 460.341 205.595 460.896C204.139 461.416 202.631 461.676 201.071 461.676C199.615 461.676 198.333 461.485 197.223 461.104C196.149 460.723 195.247 460.22 194.519 459.596C193.791 458.937 193.254 458.192 192.907 457.36C192.561 456.493 192.387 455.592 192.387 454.656C192.387 452.056 193.271 449.976 195.039 448.416C196.842 446.856 199.373 445.885 202.631 445.504C204.365 445.296 205.873 445.14 207.155 445.036C208.438 444.932 209.495 444.776 210.327 444.568C211.194 444.325 211.835 443.996 212.251 443.58C212.667 443.129 212.875 442.471 212.875 441.604C212.875 440.911 212.719 440.356 212.407 439.94C212.095 439.524 211.697 439.195 211.211 438.952C210.761 438.709 210.258 438.553 209.703 438.484C209.183 438.38 208.681 438.328 208.195 438.328C206.878 438.328 205.699 438.657 204.659 439.316C203.619 439.94 202.978 440.928 202.735 442.28H195.819ZM211.419 448.104C210.483 448.659 209.478 449.005 208.403 449.144C207.329 449.248 206.254 449.335 205.179 449.404C204.486 449.473 203.81 449.595 203.151 449.768C202.493 449.907 201.903 450.132 201.383 450.444C200.898 450.756 200.499 451.189 200.187 451.744C199.875 452.264 199.719 452.94 199.719 453.772C199.719 454.777 200.118 455.54 200.915 456.06C201.747 456.545 202.701 456.788 203.775 456.788C204.919 456.788 205.873 456.615 206.635 456.268C207.433 455.887 208.091 455.419 208.611 454.864C209.166 454.275 209.599 453.616 209.911 452.888C210.223 452.16 210.483 451.432 210.691 450.704L211.419 448.104Z" fill="#131313"/>
<path d="M228.071 439.056H223.703L224.743 434.116H229.163C229.509 432.383 229.891 430.875 230.307 429.592C230.723 428.275 231.295 427.165 232.023 426.264C232.751 425.363 233.704 424.687 234.883 424.236C236.096 423.785 237.673 423.56 239.615 423.56C240.412 423.56 241.209 423.595 242.007 423.664C242.839 423.733 243.653 423.837 244.451 423.976L243.307 429.28C242.925 429.245 242.527 429.211 242.111 429.176C241.695 429.141 241.296 429.124 240.915 429.124C239.979 429.124 239.268 429.245 238.783 429.488C238.297 429.696 237.916 430.025 237.639 430.476C237.396 430.892 237.205 431.412 237.067 432.036C236.928 432.625 236.755 433.319 236.547 434.116H241.799L240.759 439.056H235.455L230.827 461H223.443L228.071 439.056Z" fill="#131313"/>
<path d="M261.588 444.672C261.588 443.979 261.519 443.303 261.38 442.644C261.276 441.951 261.05 441.327 260.704 440.772C260.357 440.217 259.854 439.784 259.196 439.472C258.537 439.125 257.671 438.952 256.596 438.952C255.556 438.952 254.637 439.108 253.84 439.42C253.043 439.732 252.349 440.148 251.76 440.668C251.171 441.188 250.668 441.795 250.252 442.488C249.87 443.181 249.541 443.909 249.264 444.672H261.588ZM248.484 449.352C248.449 449.525 248.432 449.681 248.432 449.82C248.432 449.959 248.432 450.097 248.432 450.236V450.912C248.432 452.472 248.917 453.737 249.888 454.708C250.858 455.679 252.349 456.164 254.36 456.164C255.088 456.164 255.729 456.06 256.284 455.852C256.873 455.609 257.376 455.315 257.792 454.968C258.243 454.621 258.624 454.223 258.936 453.772C259.283 453.321 259.594 452.888 259.872 452.472H267.256C266.666 453.997 265.973 455.332 265.176 456.476C264.379 457.62 263.425 458.591 262.316 459.388C261.206 460.151 259.906 460.723 258.416 461.104C256.96 461.485 255.261 461.676 253.32 461.676C251.517 461.676 249.871 461.433 248.38 460.948C246.924 460.463 245.676 459.735 244.636 458.764C243.596 457.759 242.781 456.528 242.192 455.072C241.637 453.616 241.36 451.917 241.36 449.976C241.36 447.827 241.707 445.764 242.4 443.788C243.093 441.777 244.064 440.009 245.312 438.484C246.595 436.924 248.155 435.693 249.992 434.792C251.829 433.856 253.892 433.388 256.18 433.388C258.052 433.388 259.751 433.631 261.276 434.116C262.836 434.601 264.153 435.347 265.228 436.352C266.337 437.323 267.187 438.553 267.776 440.044C268.4 441.5 268.712 443.199 268.712 445.14C268.712 446.457 268.573 447.861 268.296 449.352H248.484Z" fill="#131313"/>
<path d="M285.155 434.116H290.459L289.315 439.056H284.063L281.307 452.42C281.238 452.697 281.186 452.957 281.151 453.2C281.117 453.408 281.099 453.564 281.099 453.668C281.099 454.153 281.169 454.535 281.307 454.812C281.481 455.055 281.689 455.245 281.931 455.384C282.174 455.523 282.434 455.609 282.711 455.644C283.023 455.644 283.318 455.644 283.595 455.644C284.497 455.644 285.381 455.592 286.247 455.488L284.999 461.156C284.237 461.225 283.474 461.277 282.711 461.312C281.949 461.381 281.169 461.416 280.371 461.416C279.505 461.416 278.638 461.329 277.771 461.156C276.939 461.017 276.177 460.757 275.483 460.376C274.825 459.96 274.287 459.405 273.871 458.712C273.49 458.019 273.317 457.117 273.351 456.008C273.351 455.661 273.386 455.28 273.455 454.864C273.525 454.413 273.611 453.945 273.715 453.46L276.731 439.056H271.895L273.039 434.116H277.771L279.435 425.952H286.819L285.155 434.116Z" fill="#131313"/>
<path d="M301.073 464.744C300.449 465.888 299.808 466.824 299.149 467.552C298.491 468.315 297.763 468.904 296.965 469.32C296.168 469.736 295.249 470.013 294.209 470.152C293.204 470.325 292.008 470.412 290.621 470.412C289.997 470.412 289.356 470.377 288.697 470.308C288.039 470.239 287.38 470.187 286.721 470.152L287.969 464.016C288.455 464.016 288.957 464.068 289.477 464.172C289.963 464.276 290.448 464.328 290.933 464.328C291.8 464.328 292.493 464.189 293.013 463.912C293.533 463.669 293.949 463.357 294.261 462.976C294.608 462.629 294.885 462.248 295.093 461.832C295.336 461.416 295.579 461.052 295.821 460.74L291.037 434.116H298.629L300.969 453.356H301.073L310.381 434.116H318.181L301.073 464.744Z" fill="#131313"/>
<path d="M339.391 448.676C339.321 449.993 339.477 451.103 339.859 452.004C340.24 452.871 340.795 453.564 341.523 454.084C342.251 454.604 343.117 454.985 344.123 455.228C345.128 455.436 346.22 455.54 347.399 455.54C348.231 455.54 349.063 455.436 349.895 455.228C350.727 455.02 351.472 454.708 352.131 454.292C352.824 453.876 353.379 453.339 353.795 452.68C354.245 452.021 354.471 451.224 354.471 450.288C354.471 449.387 354.193 448.659 353.639 448.104C353.084 447.515 352.356 447.012 351.455 446.596C350.588 446.18 349.583 445.816 348.439 445.504C347.329 445.192 346.203 444.863 345.059 444.516C343.88 444.169 342.736 443.753 341.627 443.268C340.517 442.783 339.512 442.159 338.611 441.396C337.744 440.633 337.033 439.697 336.479 438.588C335.959 437.479 335.699 436.127 335.699 434.532C335.699 432.452 336.132 430.684 336.999 429.228C337.865 427.772 338.992 426.593 340.379 425.692C341.765 424.756 343.325 424.08 345.059 423.664C346.827 423.213 348.612 422.988 350.415 422.988C352.321 422.988 354.107 423.213 355.771 423.664C357.469 424.08 358.943 424.773 360.191 425.744C361.473 426.715 362.479 427.963 363.207 429.488C363.969 430.979 364.351 432.799 364.351 434.948H356.603C356.637 433.908 356.481 433.041 356.135 432.348C355.823 431.62 355.355 431.031 354.731 430.58C354.141 430.129 353.431 429.817 352.599 429.644C351.767 429.436 350.883 429.332 349.947 429.332C349.184 429.332 348.404 429.419 347.607 429.592C346.844 429.731 346.151 429.991 345.527 430.372C344.903 430.719 344.4 431.187 344.019 431.776C343.637 432.365 343.447 433.093 343.447 433.96C343.447 434.861 343.776 435.624 344.435 436.248C345.128 436.837 345.943 437.34 346.879 437.756C347.849 438.137 348.837 438.449 349.843 438.692C350.848 438.9 351.663 439.073 352.287 439.212C353.743 439.593 355.077 440.044 356.291 440.564C357.504 441.049 358.544 441.691 359.411 442.488C360.312 443.285 361.005 444.256 361.491 445.4C361.976 446.544 362.219 447.948 362.219 449.612C362.219 451.831 361.751 453.72 360.815 455.28C359.913 456.84 358.735 458.105 357.279 459.076C355.857 460.047 354.245 460.74 352.443 461.156C350.64 461.607 348.855 461.832 347.087 461.832C341.887 461.832 338.004 460.775 335.439 458.66C332.908 456.545 331.643 453.217 331.643 448.676H339.391Z" fill="#131313"/>
<path d="M385.85 444.672C385.85 443.979 385.78 443.303 385.642 442.644C385.538 441.951 385.312 441.327 384.966 440.772C384.619 440.217 384.116 439.784 383.458 439.472C382.799 439.125 381.932 438.952 380.858 438.952C379.818 438.952 378.899 439.108 378.102 439.42C377.304 439.732 376.611 440.148 376.022 440.668C375.432 441.188 374.93 441.795 374.514 442.488C374.132 443.181 373.803 443.909 373.526 444.672H385.85ZM372.746 449.352C372.711 449.525 372.694 449.681 372.694 449.82C372.694 449.959 372.694 450.097 372.694 450.236V450.912C372.694 452.472 373.179 453.737 374.15 454.708C375.12 455.679 376.611 456.164 378.622 456.164C379.35 456.164 379.991 456.06 380.546 455.852C381.135 455.609 381.638 455.315 382.054 454.968C382.504 454.621 382.886 454.223 383.198 453.772C383.544 453.321 383.856 452.888 384.134 452.472H391.518C390.928 453.997 390.235 455.332 389.438 456.476C388.64 457.62 387.687 458.591 386.578 459.388C385.468 460.151 384.168 460.723 382.678 461.104C381.222 461.485 379.523 461.676 377.582 461.676C375.779 461.676 374.132 461.433 372.642 460.948C371.186 460.463 369.938 459.735 368.898 458.764C367.858 457.759 367.043 456.528 366.454 455.072C365.899 453.616 365.622 451.917 365.622 449.976C365.622 447.827 365.968 445.764 366.662 443.788C367.355 441.777 368.326 440.009 369.574 438.484C370.856 436.924 372.416 435.693 374.254 434.792C376.091 433.856 378.154 433.388 380.442 433.388C382.314 433.388 384.012 433.631 385.538 434.116C387.098 434.601 388.415 435.347 389.49 436.352C390.599 437.323 391.448 438.553 392.038 440.044C392.662 441.5 392.974 443.199 392.974 445.14C392.974 446.457 392.835 447.861 392.558 449.352H372.746Z" fill="#131313"/>
<path d="M399.953 434.116H406.973L405.881 438.952L405.985 439.056C406.817 437.184 408.065 435.78 409.729 434.844C411.428 433.873 413.265 433.388 415.241 433.388C416.004 433.388 416.766 433.44 417.529 433.544L416.021 440.72C415.501 440.616 414.981 440.512 414.461 440.408C413.941 440.304 413.421 440.252 412.901 440.252C411.48 440.252 410.266 440.495 409.261 440.98C408.29 441.465 407.458 442.124 406.765 442.956C406.106 443.788 405.569 444.741 405.153 445.816C404.772 446.856 404.46 447.948 404.217 449.092L401.721 461H394.389L399.953 434.116Z" fill="#131313"/>
<path d="M428.692 461H420.268L416.732 434.116H424.324L425.988 453.252H426.092L435.608 434.116H443.408L428.692 461Z" fill="#131313"/>
<path d="M455.501 429.956H448.065L449.417 423.872H456.853L455.501 429.956ZM447.233 434.116H454.669L448.949 461H441.565L447.233 434.116Z" fill="#131313"/>
<path d="M475.978 443.424C475.978 441.829 475.562 440.685 474.73 439.992C473.932 439.299 472.702 438.952 471.038 438.952C469.651 438.952 468.472 439.333 467.502 440.096C466.531 440.824 465.751 441.76 465.162 442.904C464.572 444.048 464.139 445.296 463.862 446.648C463.619 447.965 463.498 449.196 463.498 450.34C463.498 451.137 463.584 451.9 463.758 452.628C463.931 453.321 464.226 453.928 464.642 454.448C465.058 454.968 465.578 455.384 466.202 455.696C466.86 456.008 467.658 456.164 468.594 456.164C469.426 456.164 470.154 456.025 470.778 455.748C471.436 455.471 472.008 455.107 472.494 454.656C473.014 454.205 473.43 453.685 473.742 453.096C474.088 452.472 474.366 451.831 474.574 451.172H481.958C480.848 454.535 479.132 457.135 476.81 458.972C474.522 460.775 471.61 461.676 468.074 461.676C464.295 461.676 461.348 460.757 459.234 458.92C457.154 457.048 456.114 454.136 456.114 450.184C456.114 447.896 456.443 445.747 457.102 443.736C457.795 441.691 458.783 439.905 460.066 438.38C461.383 436.82 462.978 435.607 464.85 434.74C466.722 433.839 468.871 433.388 471.298 433.388C472.927 433.388 474.47 433.579 475.926 433.96C477.382 434.341 478.647 434.931 479.722 435.728C480.831 436.525 481.698 437.565 482.322 438.848C482.98 440.131 483.327 441.656 483.362 443.424H475.978Z" fill="#131313"/>
<path d="M505.236 444.672C505.236 443.979 505.167 443.303 505.028 442.644C504.924 441.951 504.699 441.327 504.352 440.772C504.006 440.217 503.503 439.784 502.844 439.472C502.186 439.125 501.319 438.952 500.244 438.952C499.204 438.952 498.286 439.108 497.488 439.42C496.691 439.732 495.998 440.148 495.408 440.668C494.819 441.188 494.316 441.795 493.9 442.488C493.519 443.181 493.19 443.909 492.912 444.672H505.236ZM492.132 449.352C492.098 449.525 492.08 449.681 492.08 449.82C492.08 449.959 492.08 450.097 492.08 450.236V450.912C492.08 452.472 492.566 453.737 493.536 454.708C494.507 455.679 495.998 456.164 498.008 456.164C498.736 456.164 499.378 456.06 499.932 455.852C500.522 455.609 501.024 455.315 501.44 454.968C501.891 454.621 502.272 454.223 502.584 453.772C502.931 453.321 503.243 452.888 503.52 452.472H510.904C510.315 453.997 509.622 455.332 508.824 456.476C508.027 457.62 507.074 458.591 505.964 459.388C504.855 460.151 503.555 460.723 502.064 461.104C500.608 461.485 498.91 461.676 496.968 461.676C495.166 461.676 493.519 461.433 492.028 460.948C490.572 460.463 489.324 459.735 488.284 458.764C487.244 457.759 486.43 456.528 485.84 455.072C485.286 453.616 485.008 451.917 485.008 449.976C485.008 447.827 485.355 445.764 486.048 443.788C486.742 441.777 487.712 440.009 488.96 438.484C490.243 436.924 491.803 435.693 493.64 434.792C495.478 433.856 497.54 433.388 499.828 433.388C501.7 433.388 503.399 433.631 504.924 434.116C506.484 434.601 507.802 435.347 508.876 436.352C509.986 437.323 510.835 438.553 511.424 440.044C512.048 441.5 512.36 443.199 512.36 445.14C512.36 446.457 512.222 447.861 511.944 449.352H492.132Z" fill="#131313"/>
<path d="M532.652 441.968C532.617 440.824 532.27 439.94 531.612 439.316C530.988 438.657 529.948 438.328 528.492 438.328C527.174 438.328 526.082 438.536 525.216 438.952C524.384 439.333 523.968 440.009 523.968 440.98C523.968 441.569 524.21 442.072 524.696 442.488C525.216 442.904 526.1 443.303 527.348 443.684L531.04 444.88C532.045 445.192 532.964 445.556 533.796 445.972C534.662 446.388 535.408 446.908 536.032 447.532C536.69 448.121 537.193 448.832 537.54 449.664C537.921 450.496 538.112 451.467 538.112 452.576C538.112 454.24 537.73 455.661 536.968 456.84C536.24 457.984 535.269 458.92 534.056 459.648C532.842 460.376 531.473 460.896 529.948 461.208C528.422 461.52 526.88 461.676 525.32 461.676C524.002 461.676 522.668 461.537 521.316 461.26C519.964 460.983 518.733 460.532 517.624 459.908C516.549 459.249 515.665 458.4 514.972 457.36C514.278 456.285 513.932 454.951 513.932 453.356V452.264H520.744V453.148C520.744 453.772 520.9 454.309 521.212 454.76C521.524 455.211 521.922 455.592 522.408 455.904C522.928 456.181 523.5 456.407 524.124 456.58C524.782 456.719 525.424 456.788 526.048 456.788C526.602 456.788 527.157 456.736 527.712 456.632C528.266 456.528 528.769 456.355 529.22 456.112C529.67 455.835 530.034 455.505 530.312 455.124C530.589 454.708 530.728 454.188 530.728 453.564C530.728 452.628 530.485 451.969 530 451.588C529.514 451.207 528.873 450.877 528.076 450.6L522.408 448.78C521.472 448.468 520.64 448.139 519.912 447.792C519.218 447.445 518.612 447.012 518.092 446.492C517.606 445.972 517.225 445.348 516.948 444.62C516.705 443.892 516.584 442.991 516.584 441.916C516.584 440.321 516.948 438.987 517.676 437.912C518.438 436.837 519.409 435.971 520.588 435.312C521.766 434.619 523.049 434.133 524.436 433.856C525.857 433.544 527.209 433.388 528.492 433.388C529.948 433.388 531.352 433.509 532.704 433.752C534.056 433.995 535.234 434.445 536.24 435.104C537.28 435.728 538.094 436.595 538.684 437.704C539.273 438.813 539.55 440.235 539.516 441.968H532.652Z" fill="#131313"/>
<defs>
<linearGradient id="paint0_linear_2001_15" x1="0.746273" y1="0.635681" x2="537.571" y2="473.37" gradientUnits="userSpaceOnUse">
<stop stop-color="#DB8E00"/>
<stop offset="1" stop-color="#CF000F"/>
</linearGradient>
<linearGradient id="paint1_linear_2001_15" x1="0.746273" y1="0.635681" x2="537.571" y2="473.37" gradientUnits="userSpaceOnUse">
<stop stop-color="#DB8E00"/>
<stop offset="1" stop-color="#CF000F"/>
</linearGradient>
<linearGradient id="paint2_linear_2001_15" x1="0.746273" y1="0.635681" x2="537.571" y2="473.37" gradientUnits="userSpaceOnUse">
<stop stop-color="#DB8E00"/>
<stop offset="1" stop-color="#CF000F"/>
</linearGradient>
</defs>
</svg>
